<?xml version="1.0" encoding="utf-8"?>
<!-- Generator: Adobe Illustrator 23.0.3, SVG Export Plug-In . SVG Version: 6.00 Build 0)  -->
<svg version="1.1" id="Layer_1" xmlns="http://www.w3.org/2000/svg" xmlns:xlink="http://www.w3.org/1999/xlink" x="0px" y="0px"
	 viewBox="0 0 10.8 10.8" style="enable-background:new 0 0 10.8 10.8;" xml:space="preserve">
<style type="text/css">
	.st0{fill:#5EBC70;}
	.st1{display:none;}
	.st2{display:inline;fill:#F24E1E;}
	.st3{display:inline;fill:#FFD233;}
</style>
<g>
	<path class="st0" d="M7.5,5.4C7,5.9,6.3,6.1,5.3,6.1H3.7v3.5H2.6V1.2h2.7c0.9,0,1.7,0.2,2.2,0.7c0.5,0.5,0.7,1,0.7,1.8
		C8.2,4.4,8,4.9,7.5,5.4z M6.6,4.8c0.3-0.3,0.4-0.6,0.4-1.1c0-1-0.6-1.5-1.8-1.5H3.7v3.1h1.6C5.9,5.2,6.4,5.1,6.6,4.8z"/>
</g>
<g class="st1">
	<path class="st2" d="M7.2,7.7H3.6L2.9,9.6H1.8l3-8.3H6l3,8.3H7.9L7.2,7.7z M6.9,6.8L5.4,2.6L3.9,6.8H6.9z"/>
</g>
<g class="st1">
	<path class="st3" d="M2.5,9.7V1.1h1.1v7.6h4.8v1H2.5z"/>
</g>
</svg>
